# xmcd
#
# Track frame offsets: 
#        150
#        15600
#        31360
#        46218
#        60478
#        77300
#        98731
#        112391
#        126477
#        144147
#        162360
#
# Disc length: 2403 seconds
#
# Revision: 0
# Processed by: cddbd v1.5.2PL0 Copyright (c) Steve Scherf et al.
# Submitted via: ExactAudioCopy v1.0b3
#
DISCID=8809610b
DTITLE=Van McCoy - The Disco Kid
DYEAR=1975
DGENRE=Disco
TTITLE0=The Disco Kid
TTITLE1=I'm Gonna Love You
TTITLE2=Change With The Times
TTITLE3=Love Child
TTITLE4=The Walk
TTITLE5=Earthquake
TTITLE6=Words Spoken Softly At Midnight
TTITLE7=Roll With The Punches
TTITLE8=Keep On Hustlin'
TTITLE9=Good Night, Baby
TTITLE10=The Way We Were
EXTD=
EXTT0=
EXTT1=
EXTT2=
EXTT3=
EXTT4=
EXTT5=
EXTT6=
EXTT7=
EXTT8=
EXTT9=
EXTT10=
PLAYORDER=
